<svg width="24" height="24" viewBox="0 0 24 24" fill="none" xmlns="http://www.w3.org/2000/svg">
<path fill-rule="evenodd" clip-rule="evenodd" d="M16.9101 22.8816C17.6466 22.8816 17.6466 24 16.9101 24C12.6194 24 11.38 24 7.0893 24C6.35275 24 6.35275 22.8816 7.0893 22.8816H9.26746L10.5821 10.6709C8.61734 9.28929 9.60199 6.18768 11.9997 6.18768C14.3969 6.18768 15.3823 9.28902 13.4173 10.6709L14.7319 22.8816H16.9101ZM16.1034 4.55114C15.5827 4.0306 14.7917 4.82127 15.3124 5.34181C17.1435 7.17221 17.1435 10.1341 15.3124 11.9648C14.7917 12.4853 15.5827 13.276 16.1034 12.7554C18.368 10.4917 18.368 6.81488 16.1034 4.55114ZM18.2946 2.36073C17.7739 1.84019 16.9829 2.63086 17.5037 3.1514C20.5448 6.19141 20.5448 11.1152 17.5037 14.1552C16.9829 14.6757 17.7739 15.4664 18.2946 14.9458C21.7693 11.4725 21.7693 5.83381 18.2946 2.36073ZM19.6949 0.960991C19.1742 0.440456 19.9651 -0.350213 20.4859 0.170322C25.1575 4.8402 25.1852 12.4386 20.4859 17.1362C19.9651 17.6568 19.1742 16.8661 19.6949 16.3456C23.952 12.0898 23.9413 5.20581 19.6949 0.960991ZM8.68697 11.9648C6.85587 10.1344 6.85587 7.17221 8.68697 5.34181C9.2077 4.82127 8.41673 4.0306 7.896 4.55114C5.63141 6.81488 5.63141 10.492 7.896 12.7554C8.41647 13.276 9.2077 12.485 8.68697 11.9648ZM6.49574 14.1552C3.45458 11.1152 3.45458 6.19141 6.49574 3.1514C7.01647 2.63086 6.2255 1.84019 5.70477 2.36073C2.23012 5.83407 2.23012 11.4728 5.70477 14.9458C6.22523 15.4664 7.01647 14.6757 6.49574 14.1552ZM4.3045 16.3456C4.82524 16.8661 4.03427 17.6568 3.51354 17.1362C-1.17118 12.4533 -1.17118 4.853 3.51354 0.170322C4.03427 -0.350213 4.82524 0.440456 4.3045 0.960991C0.0524865 5.21114 0.0524865 12.0952 4.3045 16.3456Z" fill="black"/>
</svg>
